HIERARCHY
ROOT pelvis
{
  OFFSET 0 100 0
  CHANNELS 6 Xposition Yposition Zposition Zrotation Xrotation Yrotation
  JOINT pelvis_right_femur
  {
    OFFSET -10.78128 -3.44521 -0.5502486
    CHANNELS 3 Zrotation Xrotation Yrotation
    JOINT right_femur_tibia
    {
      OFFSET -0.8047443 -44.0398 -0.1307829
      CHANNELS 3 Zrotation Xrotation Yrotation
      JOINT right_tibia_foot
      {
        OFFSET 3.006224 -47.83518 -5
        CHANNELS 3 Zrotation Xrotation Yrotation
        End Site
        {
          OFFSET 0 -5 15
        }
      }
    }
  }
  JOINT pelvis_left_femur
  {
    OFFSET 10.78128 -3.44521 -0.5502486
    CHANNELS 3 Zrotation Xrotation Yrotation
    JOINT left_femur_tibia
    {
      OFFSET 0.8047443 -44.0398 -0.1307829
      CHANNELS 3 Zrotation Xrotation Yrotation
      JOINT left_tibia_foot
      {
        OFFSET -4.370144 -48.10324 -4.275266
        CHANNELS 3 Zrotation Xrotation Yrotation
        End Site
        {
          OFFSET 0 -5 15
        }
      }
    }
  }
  JOINT pelvis_spine1
  {
    OFFSET 0 6.468898 -3.129235
    CHANNELS 3 Zrotation Xrotation Yrotation
    JOINT spine1
    {
      OFFSET 0 23.15396 4.99043
      CHANNELS 3 Zrotation Xrotation Yrotation
      JOINT spine2
      {
        OFFSET 0 20.79997 -5.064912
        CHANNELS 3 Zrotation Xrotation Yrotation
        JOINT neck
        {
          OFFSET 0 14.38658 9.616178
          CHANNELS 3 Zrotation Xrotation Yrotation
          End Site
          {
            OFFSET 0 20 0
          }
        }
      }
      JOINT right_manubrium
      {
        OFFSET -5.722621 16.35077 3.967754
        CHANNELS 3 Zrotation Xrotation Yrotation
        JOINT right_clavicle
        {
          OFFSET -13.16364 1.694482 -4.693211
          CHANNELS 3 Zrotation Xrotation Yrotation
          JOINT right_humerus
          {
            OFFSET -28.5034 -0.3100689 -2.792744
            CHANNELS 3 Zrotation Xrotation Yrotation
            JOINT right_radius
            {
              OFFSET -25.15693 0.02248979 -1.271978
              CHANNELS 3 Zrotation Xrotation Yrotation
              End Site
              {
                OFFSET -15 0 0
              }
            }
          }
        }
      }
      JOINT left_manubrium
      {
        OFFSET 5.722621 16.35077 3.967754
        CHANNELS 3 Zrotation Xrotation Yrotation
        JOINT left_clavicle
        {
          OFFSET 13.16364 1.694482 -4.693211
          CHANNELS 3 Zrotation Xrotation Yrotation
          JOINT left_humerus
          {
            OFFSET 29.39168 -1.063119 -2.237045
            CHANNELS 3 Zrotation Xrotation Yrotation
            JOINT left_radius
            {
              OFFSET 24.59957 -0.9528479 0.9047498
              CHANNELS 3 Zrotation Xrotation Yrotation
              End Site
              {
                OFFSET 15 -0 -0
              }
            }
          }
        }
      }
    }
  }
}
MOTION
Frames: 15
Frame Time: 0.0416666666667
0 103.5113 0 0.7981959 -1.649803 0.8432527 1.163758 -22.18621 3.118214 -0 34.48386 -0 -3.968785 -5.099463 -3.585563 -6.245213 12.58838 -17.13925 0 -5.047848 0 3.185294 -21.556 20.35149 -3.560271 -1.435641 2.874173 1.522931 8.663936 -7.233023 1.431556 22.16608 7.200384 2.973376 -21.72327 9.085166 4.022555 -18.08205 10.5098 86.96618 31.67287 -18.15259 -0 0 14.1272 -14.91141 10.05707 8.700932 6.2997 -20.01532 -3.49262 -88.9461 27.19323 16.27239 0 0 -19.5517 3.42999 14.14749 9.892138
0.5907604 102.4948 3.766244 0.8579079 -1.658684 1.684514 1.071048 -21.90082 3.219741 -0 35.18221 -0 -3.768599 -5.134762 -3.630901 -6.296414 12.42003 -17.20277 0 -5.292913 0 3.085519 -21.5955 20.41436 -3.613006 -1.396695 2.893127 1.492227 8.591681 -7.182163 1.444798 22.18466 7.222266 2.962364 -21.68201 9.127119 4.088705 -18.04444 10.48863 86.80999 31.78657 -17.96767 -0 0 14.24372 -14.94974 10.06899 8.74347 6.257908 -19.8392 -3.430841 -89.00736 27.37949 16.34557 0 0 -19.35709 3.18205 14.05849 10.18638
1.061416 101.201 7.271945 0.4147757 -0.5461076 2.308911 2.219597 -25.85214 2.9786 -0 27.10225 -0 -5.275524 -6.720533 -3.242664 -5.7576 14.23043 -17.44108 0 -5.543857 0 4.124075 -22.13064 20.2386 -3.233913 -1.755933 2.765768 2.056894 8.822441 -7.85089 1.267724 21.82849 7.162531 3.084186 -22.62047 8.943197 3.901693 -18.46287 10.6615 87.70269 32.04609 -19.79405 -0 0 13.70406 -13.39694 9.896385 7.913824 6.72057 -21.22025 -3.545966 -88.90674 26.91403 16.16931 0 0 -21.76624 4.730958 14.8846 8.497773
1.435051 99.67029 10.60484 0.1072285 0.1355254 2.81258 3.016915 -28.35786 2.874506 -0 21.67848 -0 -6.245905 -7.749361 -3.038482 -5.382515 15.35244 -17.51747 0 -5.199971 0 4.688496 -22.38707 20.0421 -2.959008 -1.973897 2.694903 2.42368 8.979927 -8.284077 1.158758 21.60322 7.10765 3.153984 -23.19642 8.808748 3.769206 -18.69746 10.77737 88.32305 32.16671 -21.01903 -0 0 13.29629 -12.42336 9.807247 7.369401 7.009434 -22.12849 -3.623097 -88.80548 26.58862 15.99706 0 0 -23.36917 5.732171 15.36456 7.407308
1.716887 98.04748 13.93745 -0.1099 0.355431 3.203312 3.647036 -29.94015 2.722431 -0 17.70915 -0 -6.957518 -8.04737 -3.007159 -5.093054 16.18225 -17.19553 0 -2.944244 0 4.715274 -22.20014 19.53964 -2.667356 -2.075896 2.636894 2.640785 9.185803 -8.571986 1.111403 21.50035 7.008843 3.176897 -23.40682 8.645936 3.584778 -18.67677 10.86709 88.99674 31.92803 -22.05652 -0 0 12.64833 -12.01145 9.852489 6.999083 7.168253 -22.85974 -3.780662 -88.47892 26.10707 15.49052 0 0 -24.58979 6.512385 15.57698 6.516194
1.919796 96.43604 17.38005 -0.2499301 0.2956117 3.497108 4.130704 -30.84907 2.584836 -0 14.96039 -0 -7.407571 -7.929277 -3.096868 -4.886458 16.77328 -16.6686 -0 0.3372556 -0 4.368611 -21.77209 18.88576 -2.392966 -2.087253 2.593547 2.754713 9.380822 -8.749497 1.107858 21.4797 6.896608 3.167042 -23.37982 8.489739 3.407185 -18.47728 10.93051 89.6176 31.54486 -22.89183 -0 0 11.90962 -11.94423 9.988985 6.747024 7.227556 -23.39403 -3.954577 -88.05084 25.63555 14.81529 0 0 -25.49451 7.017491 15.59204 5.912085
2.051762 94.92172 21.03303 -0.3272129 -0.007601011 3.704605 4.516147 -31.20289 2.455593 -0 13.11639 -0 -7.637909 -7.46258 -3.299153 -4.740622 17.1693 -15.92798 -0 4.733846 -0 3.664666 -21.0978 18.06749 -2.117636 -2.015556 2.563816 2.78504 9.571429 -8.838261 1.143619 21.52946 6.766393 3.127392 -23.14215 8.332653 3.231513 -18.10484 10.97484 90.21271 31.03078 -23.58837 -0 0 11.05586 -12.1696 10.22006 6.582441 7.199675 -23.77494 -4.147155 -87.51866 25.16129 13.96053 0 0 -26.17346 7.281652 15.43305 5.558227
2.120225 93.57996 24.97899 -0.3512026 -0.508491 3.834441 4.825749 -31.04668 2.348833 -0 12.01415 -0 -7.659455 -6.747927 -3.601458 -4.641228 17.35146 -15.00363 -0 10.09794 -0 2.646769 -20.1981 17.12464 -1.840882 -1.868069 2.553472 2.745288 9.748786 -8.847693 1.213822 21.63702 6.620629 3.061348 -22.7265 8.177567 3.066018 -17.58535 11.00374 90.76123 30.43201 -24.1482 -0 0 10.12503 -12.63421 10.53842 6.492374 7.0935 -24.00788 -4.344485 -86.91691 24.70864 12.97534 0 0 -26.65454 7.303664 15.11958 5.462052
2.131721 92.48303 29.29334 -0.3277609 -1.194129 3.891977 5.075354 -30.35038 2.270554 -0 11.54619 -0 -7.475023 -5.842684 -4.00042 -4.571706 17.26341 -13.89073 -0 16.43168 -0 1.327254 -19.0512 16.07854 -1.557361 -1.645703 2.571709 2.639023 9.911883 -8.777131 1.31729 21.7969 6.456194 2.969215 -22.14109 8.021992 2.910586 -16.93388 11.02072 91.24852 29.76281 -24.56055 -0 0 9.141373 -13.32622 10.94627 6.478391 6.910012 -24.09252 -4.540376 -86.26648 24.27983 11.89266 0 0 -26.94082 7.079808 14.6536 5.63003
2.0937 91.70142 34.04272 -0.2612833 -2.054453 3.879912 5.271423 -29.0274 2.226954 -0 11.64294 -0 -7.083217 -4.815192 -4.48713 -4.509648 16.79939 -12.58856 -0 23.67334 -0 -0.2703817 -17.63045 14.97076 -1.265403 -1.34986 2.633538 2.46547 10.05915 -8.618565 1.452744 22.00347 6.26975 2.851122 -21.39297 7.863591 2.76437 -16.17913 11.02919 91.64247 29.03837 -24.78504 -0 0 8.156664 -14.24407 11.44288 6.554873 6.648171 -24.0173 -4.725622 -85.60339 23.87876 10.7758 0 0 -27.00417 6.602764 14.03399 6.073229
2.015975 91.29922 39.27933 -0.1580639 -3.072137 3.797355 5.417573 -26.94311 2.224094 -0 12.21372 -0 -6.491187 -3.767442 -5.038532 -4.417441 15.79515 -11.10551 -0 31.65925 -0 -2.099627 -15.91084 13.868 -0.9654805 -0.9860137 2.761947 2.222929 10.18973 -8.359276 1.616941 22.24726 6.057292 2.707959 -20.49687 7.698515 2.624068 -15.37477 11.03395 91.89217 28.27858 -24.75338 -0 0 7.260459 -15.38573 12.02114 6.74667 6.308023 -23.76617 -4.887003 -84.98624 23.51036 9.733766 0 0 -26.79225 5.87202 13.26321 6.796461
1.912841 91.31973 45.02606 -0.0306179 -4.199179 3.638166 5.517414 -23.93939 2.268998 -0 13.08886 -0 -5.734173 -2.874064 -5.59864 -4.233534 14.02266 -9.482845 -0 39.96924 -0 -4.058084 -13.89998 12.88021 -0.663521 -0.5717967 2.98975 1.914632 10.30232 -7.986396 1.800618 22.50806 5.816702 2.543907 -19.49564 7.521993 2.484514 -14.62329 11.04246 91.91903 27.52244 -24.36527 -0 0 6.607837 -16.72394 12.65633 7.085314 5.897366 -23.32552 -5.00317 -84.51445 23.18741 8.95618 0 0 -26.23218 4.90927 12.36421 7.783099
1.805432 91.75829 51.25435 0.09778543 -5.332759 3.388403 5.578098 -19.88713 2.368418 -0 13.95824 -0 -4.899732 -2.40918 -6.058555 -3.870421 11.21183 -7.815095 -0 47.77999 -0 -5.958735 -11.67731 12.16467 -0.373718 -0.1459362 3.358 1.556098 10.39505 -7.494784 1.984067 22.74845 5.551067 2.369137 -18.48166 7.328696 2.338929 -14.09538 11.06559 91.61598 26.83764 -23.49581 -0 0 6.43539 -18.17732 13.29477 7.599074 5.439585 -22.6971 -5.043278 -84.34007 22.9328 8.734816 0 0 -25.24554 3.777997 11.40173 8.974233
1.723497 92.52665 57.86229 0.1924807 -6.303133 3.025178 5.610407 -14.78309 2.523097 -0 14.36362 -0 -4.141059 -2.724189 -6.251701 -3.236235 7.134332 -6.256469 -0 53.80483 -0 -7.519515 -9.431368 11.90386 -0.1206055 0.2260989 3.90501 1.181347 10.46667 -6.898304 2.134746 22.91243 5.273031 2.201751 -17.60826 7.114526 2.180273 -14.02479 11.11641 90.86569 26.3163 -22.02554 -0 0 7.038271 -19.58816 13.84817 8.295278 4.980084 -21.91528 -4.97238 -84.65888 22.76914 9.438211 0 0 -23.78008 2.600461 10.50144 10.24802
1.704201 93.43032 64.67179 0.2180209 -6.908058 2.522079 5.622999 -8.865284 2.718611 -0 13.83812 -0 -3.64215 -4.118674 -6.002223 -2.292019 1.767954 -4.987444 -0 56.55761 -0 -8.415115 -7.446669 12.24007 0.0642478 0.4624204 4.641372 0.8396093 10.51924 -6.23867 2.21357 22.93999 5.006665 2.065507 -17.06032 6.880658 2.004501 -14.6389 11.20492 89.59415 26.03971 -19.90466 -0 0 8.661745 -20.7428 14.21018 9.141473 4.582152 -21.05797 -4.768733 -85.65108 22.68611 11.37999 0 0 -21.85683 1.549848 9.838566 11.42189
